<svg xmlns="http://www.w3.org/2000/svg" width="24" height="24" viewBox="0 0 24 24">
    <g>
        <path fill="#fff" d="M0 0H24V24H0z" transform="translate(-1740.5 -527) translate(1740.5 527)"/>
        <g>
            <path fill="#262626" d="M15.782 13.835l-3.115-3.115a.749.749 0 0 0-.531-.219h-.509a6.5 6.5 0 1 0-1.127 1.125v.509a.749.749 0 0 0 .219.531l3.116 3.116a.747.747 0 0 0 1.059 0l.884-.884a.754.754 0 0 0 .004-1.063zM6.5 10.5a4 4 0 1 1 4-4 4 4 0 0 1-4 4z" transform="translate(-1740.5 -527) translate(1744 531)"/>
        </g>
    </g>
</svg>
