<svg xmlns="http://www.w3.org/2000/svg" width="24" height="24" viewBox="0 0 24 24">
    <g>
        <path fill="#fff" d="M0 0H24V24H0z" opacity="0.003" transform="translate(-30.002 4) translate(30.002 -4)"/>
        <g>
            <path fill="#262626" d="M16 16h-3.311v-5.2c0-1.239-.025-2.829-1.724-2.829-1.725 0-1.99 1.346-1.99 2.74V16H5.661V5.318h3.182v1.457h.047a3.485 3.485 0 0 1 3.139-1.725C15.385 5.05 16 7.26 16 10.132V16zM.265 16V5.318h3.317V16zM0 1.922a1.922 1.922 0 1 1 1.922 1.939A1.922 1.922 0 0 1 0 1.922z" transform="translate(-30.002 4) translate(34)"/>
        </g>
    </g>
</svg>
