<svg xmlns="http://www.w3.org/2000/svg" width="121.902" height="28.507" viewBox="0 0 121.902 28.507">
    <defs>
        <clipPath id="51j4maepda">
            <path fill="none" d="M13.821-.493A14.03 14.03 0 0 1 6.6-2.3a12.821 12.821 0 0 1-4.843-5.02A15.242 15.242 0 0 1 0-14.746a15.242 15.242 0 0 1 1.752-7.422A12.821 12.821 0 0 1 6.6-27.189 14.03 14.03 0 0 1 13.821-29a14.058 14.058 0 0 1 7.206 1.811 12.644 12.644 0 0 1 4.843 5.02 15.382 15.382 0 0 1 1.73 7.423 15.382 15.382 0 0 1-1.733 7.422A12.643 12.643 0 0 1 21.026-2.3a14.058 14.058 0 0 1-7.205 1.807zm0-4.528a8.039 8.039 0 0 0 6.28-2.6 10.254 10.254 0 0 0 2.343-7.127 10.254 10.254 0 0 0-2.344-7.125 8.039 8.039 0 0 0-6.28-2.6 8.1 8.1 0 0 0-6.3 2.6 10.2 10.2 0 0 0-2.363 7.127 10.2 10.2 0 0 0 2.364 7.127 8.1 8.1 0 0 0 6.3 2.598zm18.23 4.056v-27.563h10.12a11.716 11.716 0 0 1 5.453 1.122 7.564 7.564 0 0 1 3.209 3.032 8.554 8.554 0 0 1 1.067 4.233 8.449 8.449 0 0 1-1.319 4.607 7.483 7.483 0 0 1-4.118 3.034L52.172-.965h-5.788l-5.119-10.868h-4.174V-.965zm5.04-14.569h4.764a4.951 4.951 0 0 0 3.7-1.221 4.446 4.446 0 0 0 1.181-3.229 4.3 4.3 0 0 0-1.162-3.15 5.1 5.1 0 0 0-3.76-1.181h-4.723zM56.582-.965v-27.563h17.994v4.056H61.622v7.56h11.773v3.938H61.622v7.954h12.954v4.055zm22.759 0v-27.563H90.4q4.292 0 6.556 1.988a6.48 6.48 0 0 1 2.264 5.1 5.981 5.981 0 0 1-1.4 4.154 6.972 6.972 0 0 1-3.406 2.107 6.571 6.571 0 0 1 3.9 2.343 6.653 6.653 0 0 1 1.536 4.351 6.94 6.94 0 0 1-2.363 5.394A9.665 9.665 0 0 1 90.8-.965zm5.04-15.986h5.276a4.861 4.861 0 0 0 3.268-.984 3.491 3.491 0 0 0 1.142-2.8 3.486 3.486 0 0 0-1.122-2.737 4.914 4.914 0 0 0-3.367-1h-5.2zm0 11.891h5.631A5.259 5.259 0 0 0 93.5-6.1a3.623 3.623 0 0 0 1.24-2.933 3.765 3.765 0 0 0-1.3-3.032 5.239 5.239 0 0 0-3.5-1.1h-5.559zm24.846-23.468V-.965h-5.04v-27.563zm11.7 5.16a.878.878 0 0 1 .678.256.906.906 0 0 1 .284.677.906.906 0 0 1-.284.677.962.962 0 0 1-.7.275.8.8 0 0 1-.906-.906.967.967 0 0 1 .256-.687.932.932 0 0 1 .667-.292zm-5.338-.009a.917.917 0 0 1 .668.27.884.884 0 0 1 .275.655.935.935 0 0 1-.275.682.9.9 0 0 1-.668.279.91.91 0 0 1-.668-.275.921.921 0 0 1-.275-.677.9.9 0 0 1 .27-.664.913.913 0 0 1 .668-.27zm-.009-5.319a.906.906 0 0 1 .664.279.917.917 0 0 1 .279.673.9.9 0 0 1-.275.655.892.892 0 0 1-.659.279.917.917 0 0 1-.673-.279.917.917 0 0 1-.279-.673.9.9 0 0 1 .279-.655.907.907 0 0 1 .659-.283zm5.411 0a.88.88 0 0 1 .655.265.914.914 0 0 1 .261.668.913.913 0 0 1-.279.677.936.936 0 0 1-.682.275.923.923 0 0 1-.668-.247.862.862 0 0 1-.256-.65.969.969 0 0 1 .279-.7.924.924 0 0 1 .685-.292z"/>
        </clipPath>
    </defs>
    <g>
        <g clip-path="url(#51j4maepda)" transform="translate(0 29)">
            <path fill="#252525" d="M-5-34h131.9V4.508H-5z"/>
        </g>
    </g>
</svg>
