<svg xmlns="http://www.w3.org/2000/svg" width="65.014" height="15.204" viewBox="0 0 65.014 15.204">
    <defs>
        <clipPath id="xcpevl7lra">
            <path fill="none" d="M7.371-.8a7.483 7.483 0 0 1-3.853-.966A6.838 6.838 0 0 1 .934-4.439 8.129 8.129 0 0 1 0-8.4a8.129 8.129 0 0 1 .934-3.958 6.838 6.838 0 0 1 2.583-2.678A7.483 7.483 0 0 1 7.371-16a7.5 7.5 0 0 1 3.843.966 6.743 6.743 0 0 1 2.586 2.678 8.2 8.2 0 0 1 .921 3.956 8.2 8.2 0 0 1-.921 3.961 6.743 6.743 0 0 1-2.583 2.677A7.5 7.5 0 0 1 7.371-.8zm0-2.415A4.287 4.287 0 0 0 10.72-4.6a5.469 5.469 0 0 0 1.25-3.8 5.469 5.469 0 0 0-1.25-3.8 4.287 4.287 0 0 0-3.35-1.386A4.32 4.32 0 0 0 4.011-12.2a5.44 5.44 0 0 0-1.26 3.8 5.44 5.44 0 0 0 1.26 3.8 4.32 4.32 0 0 0 3.36 1.389zm9.723 2.163v-14.7h5.4a6.249 6.249 0 0 1 2.909.6 4.034 4.034 0 0 1 1.712 1.617 4.562 4.562 0 0 1 .567 2.258 4.506 4.506 0 0 1-.7 2.457A3.991 3.991 0 0 1 24.78-7.2l3.045 6.153h-3.087l-2.73-5.8h-2.226v5.8zm2.688-7.77h2.541a2.641 2.641 0 0 0 1.977-.647 2.371 2.371 0 0 0 .63-1.722 2.292 2.292 0 0 0-.619-1.68A2.723 2.723 0 0 0 22.3-13.5h-2.52zm10.4 7.77v-14.7h9.6v2.163h-6.917v4.032h6.279v2.1h-6.279v4.242h6.909v2.163zm12.138 0v-14.7h5.9a5.143 5.143 0 0 1 3.5 1.061 3.456 3.456 0 0 1 1.207 2.719 3.19 3.19 0 0 1-.745 2.216 3.718 3.718 0 0 1-1.816 1.123 3.5 3.5 0 0 1 2.079 1.249 3.548 3.548 0 0 1 .819 2.32A3.7 3.7 0 0 1 52-2.182a5.155 5.155 0 0 1-3.57 1.134zM45-9.574h2.814a2.593 2.593 0 0 0 1.746-.526 1.862 1.862 0 0 0 .609-1.491 1.859 1.859 0 0 0-.6-1.46 2.621 2.621 0 0 0-1.8-.535H45zm0 6.342h3a2.8 2.8 0 0 0 1.858-.556 1.932 1.932 0 0 0 .662-1.565 2.008 2.008 0 0 0-.693-1.617 2.794 2.794 0 0 0-1.869-.588H45zm13.254-12.516v14.7h-2.688v-14.7zM64.492-13a.468.468 0 0 1 .361.137.483.483 0 0 1 .147.363.483.483 0 0 1-.151.361.513.513 0 0 1-.371.146.427.427 0 0 1-.478-.481.516.516 0 0 1 .137-.366.5.5 0 0 1 .355-.16zm-2.847 0a.489.489 0 0 1 .356.144.471.471 0 0 1 .146.349.5.5 0 0 1-.146.364.481.481 0 0 1-.356.149.485.485 0 0 1-.356-.146.491.491 0 0 1-.146-.361.481.481 0 0 1 .144-.354.487.487 0 0 1 .358-.145zm0-2.837a.484.484 0 0 1 .354.149.489.489 0 0 1 .149.359.482.482 0 0 1-.146.349.476.476 0 0 1-.352.149.489.489 0 0 1-.359-.149.489.489 0 0 1-.149-.359.478.478 0 0 1 .149-.349.484.484 0 0 1 .349-.15zm2.886 0a.469.469 0 0 1 .349.142.488.488 0 0 1 .139.356.487.487 0 0 1-.149.361.5.5 0 0 1-.364.146.492.492 0 0 1-.356-.132.46.46 0 0 1-.137-.347.517.517 0 0 1 .149-.374.493.493 0 0 1 .364-.153z" transform="translate(0 16)"/>
        </clipPath>
    </defs>
    <g clip-path="url(#xcpevl7lra)">
        <path fill="#252525" d="M-5-21h75.014V4.2H-5z" transform="translate(0 16)"/>
    </g>
</svg>
