<svg xmlns="http://www.w3.org/2000/svg" width="24" height="24" viewBox="0 0 24 24">
    <g>
        <path fill="#fff" d="M0 0H24V24H0z" transform="translate(1 2) translate(-1 -2)"/>
        <g>
            <path fill="#262626" d="M9.982 0a9.966 9.966 0 0 0-6.89 2.77l-1.44-1.44A.968.968 0 0 0 0 2.014v5.405a.968.968 0 0 0 .968.968h5.405a.968.968 0 0 0 .684-1.652L5.374 5.052A6.774 6.774 0 1 1 5.539 15.1a.483.483 0 0 0-.66.022l-1.6 1.6a.485.485 0 0 0 .019.7A10 10 0 1 0 9.982 0z" transform="translate(1 2) translate(1)"/>
        </g>
    </g>
</svg>
