<svg xmlns="http://www.w3.org/2000/svg" width="24" height="24" viewBox="0 0 24 24">
    <g>
        <path fill="#fff" d="M0 0H24V24H0z" transform="translate(3.5 -6) translate(-3.5 6)"/>
        <path fill="#262626" d="M0 19.936v-2.6q1.792-1.484 3.486-2.94a37.79 37.79 0 0 0 3.024-2.888 16.16 16.16 0 0 0 2.128-2.786 5.213 5.213 0 0 0 .8-2.646 3.575 3.575 0 0 0-.658-2.128 2.479 2.479 0 0 0-2.17-.924 2.763 2.763 0 0 0-2.326 1.008A3.848 3.848 0 0 0 3.5 6.468H.028A7.06 7.06 0 0 1 .98 2.87 5.635 5.635 0 0 1 3.36.714 7.587 7.587 0 0 1 6.692 0a6.365 6.365 0 0 1 4.662 1.638A5.688 5.688 0 0 1 13.02 5.88a7.212 7.212 0 0 1-.742 3.164 14.114 14.114 0 0 1-1.946 2.968 26.083 26.083 0 0 1-2.6 2.674Q6.328 15.932 5.012 17H13.5v2.94z" transform="translate(3.5 -6) translate(1.44 8.064)"/>
    </g>
</svg>
