<svg xmlns="http://www.w3.org/2000/svg" width="24" height="24" viewBox="0 0 24 24">
    <g>
        <path fill="#fff" d="M0 0H24V24H0z" transform="translate(-100.5 1) translate(100.5 -1)"/>
        <g>
            <path fill="#262626" d="M11.922 6.8l1.067-4.7a.542.542 0 0 0-.528-.662H3.594L3.387.433A.542.542 0 0 0 2.856 0H.542A.542.542 0 0 0 0 .542V.9a.542.542 0 0 0 .542.542h1.577L3.705 9.2a1.264 1.264 0 1 0 1.514.193h4.733a1.264 1.264 0 1 0 1.436-.235l.125-.548a.542.542 0 0 0-.528-.662H4.924l-.148-.722h6.618a.542.542 0 0 0 .528-.426z" transform="translate(-100.5 1) translate(106 5)"/>
        </g>
    </g>
</svg>
