<svg xmlns="http://www.w3.org/2000/svg" width="24" height="24" viewBox="0 0 24 24">
    <g>
        <path fill="#fff" d="M0 0H24V24H0z" transform="translate(-79.5 1) translate(79.5 -1)"/>
        <g>
            <path fill="#262626" d="M1.855 10.338l-.864.862A.58.58 0 0 1 0 10.792V7.548a.581.581 0 0 1 .581-.581h3.243a.58.58 0 0 1 .41.991L3.225 8.969A4.066 4.066 0 0 0 9.942 7a.291.291 0 0 1 .282-.221h1.386a.29.29 0 0 1 .286.343 6 6 0 0 1-10.041 3.216zM.39 5.225a.29.29 0 0 1-.29-.342 6 6 0 0 1 10.045-3.222L11.009.8a.581.581 0 0 1 .991.409v3.242a.58.58 0 0 1-.581.58H8.176a.581.581 0 0 1-.41-.991l1.011-1.01A4.067 4.067 0 0 0 2.057 5a.29.29 0 0 1-.282.221z" transform="translate(-79.5 1) translate(85 5)"/>
        </g>
    </g>
</svg>
