<svg xmlns="http://www.w3.org/2000/svg" width="36" height="36" viewBox="0 0 36 36">
    <defs>
        <style>
            .cls-2{fill:#737373}
        </style>
    </defs>
    <g id="그룹_49" transform="translate(-626 -531)">
        <g id="Rectangle_Copy" fill="#fff" stroke="#f0f0f0" stroke-miterlimit="10">
            <path stroke="none" d="M0 0H36V36H0z" transform="translate(626 531)"/>
            <path fill="none" d="M0.5 0.5H35.5V35.5H0.5z" transform="translate(626 531)"/>
        </g>
        <path id="Path" d="M4 2.438V.563A.607.607 0 0 0 3.357 0H.643A.607.607 0 0 0 0 .563v1.875A.607.607 0 0 0 .643 3h2.714A.607.607 0 0 0 4 2.438z" class="cls-2" transform="translate(637 553)"/>
        <path id="Path-2" d="M0 .563v1.875C0 2.748.648 3 1.446 3h6.108C8.352 3 9 2.748 9 2.438V.563C9 .252 8.352 0 7.554 0H1.446C.648 0 0 .252 0 .563z" class="cls-2" transform="translate(642.941 543)"/>
        <path id="Path-3" d="M4 2.438V.563A.607.607 0 0 0 3.357 0H.643A.607.607 0 0 0 0 .563v1.875A.607.607 0 0 0 .643 3h2.714A.607.607 0 0 0 4 2.438z" class="cls-2" transform="translate(637 543)"/>
        <path id="Path_Copy" d="M4 2.438V.563A.607.607 0 0 0 3.357 0H.643A.607.607 0 0 0 0 .563v1.875A.607.607 0 0 0 .643 3h2.714A.607.607 0 0 0 4 2.438z" class="cls-2" transform="translate(637 548)"/>
        <path id="Path-4" d="M1.446 3h6.108C8.352 3 9 2.748 9 2.438V.563C9 .252 8.352 0 7.554 0H1.446C.648 0 0 .252 0 .563v1.875C0 2.748.648 3 1.446 3z" class="cls-2" transform="translate(642.941 548)"/>
        <path id="Path_Copy_2" d="M1.446 3h6.108C8.352 3 9 2.748 9 2.438V.563C9 .252 8.352 0 7.554 0H1.446C.648 0 0 .252 0 .563v1.875C0 2.748.648 3 1.446 3z" class="cls-2" transform="translate(642.941 553)"/>
    </g>
</svg>
